<?xml version="1.0" ?><!DOCTYPE svg  PUBLIC '-//W3C//DTD SVG 1.1//EN'  'http://www.w3.org/Graphics/SVG/1.1/DTD/svg11.dtd'><svg enable-background="new 0 0 512 512" height="512px" id="Layer_1" version="1.1" viewBox="0 0 512 512" width="512px" xml:space="preserve" xmlns="http://www.w3.org/2000/svg" xmlns:xlink="http://www.w3.org/1999/xlink"><g><path d="M510.689,478.854c0,17.561-14.275,31.836-31.836,31.836H33.146c-17.56,0-31.836-14.275-31.836-31.836   V33.146c0-17.56,14.276-31.836,31.836-31.836h445.707c17.561,0,31.836,14.276,31.836,31.836V478.854z" fill="#3688C8"/></g><g id="Logo"><g id="yellow"><path clip-rule="evenodd" d="M87.886,246.17c7.037,0,13.652,3.108,18.51,7.979v0.019    c0-2.338,1.573-4.1,3.759-4.1l0.553-0.005c3.417,0,4.117,3.234,4.117,4.259l0.019,36.353c-0.242,2.379,2.454,3.605,3.95,2.082    c5.838-5.998,12.82-30.839-3.628-45.231c-15.33-13.418-35.9-11.206-46.84-3.666c-11.629,8.021-19.07,25.77-11.842,42.441    c7.879,18.188,30.427,23.609,43.828,18.202c6.787-2.739,9.922,6.435,2.873,9.432c-10.649,4.539-40.288,4.082-54.134-19.903    c-9.354-16.195-8.856-44.692,15.953-59.457c18.98-11.292,44.003-8.165,59.092,7.594c15.772,16.474,14.854,47.321-0.531,59.32    c-6.971,5.446-17.323,0.142-17.258-7.799l-0.071-2.596c-4.854,4.817-11.312,7.627-18.35,7.627    c-13.903,0-26.137-12.235-26.137-26.133C61.75,258.544,73.983,246.17,87.886,246.17L87.886,246.17L87.886,246.17L87.886,246.17z     M105.384,271.579c-0.524-10.18-8.08-16.302-17.206-16.302h-0.344c-10.53,0-16.371,8.281-16.371,17.688    c0,10.533,7.066,17.188,16.331,17.188c10.329,0,17.122-7.567,17.613-16.518L105.384,271.579z" fill="#FAA830" fill-rule="evenodd"/><path clip-rule="evenodd" d="M359.749,299.144c-0.028,2.249-2.382,4.557-5.797,4.557    c-3.445,0-5.591-2.521-5.591-4.746l0.004-3.841c0.04-2.316,2.181-4.723,5.676-4.723c3.822,0,5.72,2.58,5.72,5.006L359.749,299.144    z" fill="#FAA830" fill-rule="evenodd"/><path clip-rule="evenodd" d="M397.036,244.755c-15.893,0.066-29.448,14.075-29.373,29.492    v24.03c0,3.128,2.562,5.423,5.262,5.423c3.211,0,5.705-2.374,5.705-5.257v-24.398c-0.01-8.735,7.625-18.377,18.336-18.326    c3.488,0.016,5.778-2.631,5.762-5.556C402.715,247.822,401.033,244.738,397.036,244.755z" fill="#FAA830" fill-rule="evenodd"/><path clip-rule="evenodd" d="M463.047,244.755c-3.379,0-5.555,2.767-5.555,5.318l0.001,24.183    c0,9.337-7.859,18.451-18.79,18.451c-8.936,0-18.401-7.754-18.401-18.275v-24.223c0-2.544-1.906-5.454-5.69-5.454    c-2.673,0-5.402,2.242-5.402,5.344v24.145c0,15.63,13.972,29.399,29.459,29.399c16.911,0,29.886-14.5,29.886-29.326v-24.228    C468.554,247.374,466.314,244.755,463.047,244.755z" fill="#FAA830" fill-rule="evenodd"/></g><g id="white"><path d="M302.227,236.051c0,2.371-2.373,4.32-5.79,4.32c-3.442,0-5.587-2.356-5.587-4.578l0.001-3.058    c0.042-2.314,2.064-4.904,5.554-4.904c3.823,0,5.822,2.476,5.822,4.904V236.051z" fill="#FFFFFF"/><path d="M199.344,244.799c-6.985-0.104-12.339,3.95-15.64,6.652c-3.665-3.93-8.357-6.326-13.178-6.625    c-5.084-0.312-9.853,1.398-12.884,3.861c-1.062-2.463-2.462-3.912-4.857-3.912c-2.628,0-5.423,2.245-5.423,5.909    c0,3.658,0.03,47.492,0.03,47.492c0,2.727,2.331,5.491,5.655,5.491c3.667,0,5.694-2.797,5.694-5.509v-35.232    c0-3.427,5.861-7.482,10.814-7.418c3.166,0.043,6.927,3.164,6.927,8.089l0.03,34.642c0,3.065,3.082,5.411,5.878,5.411    c3.322,0,5.842-2.511,5.842-5.373v-35.015c0-4.289,6.517-7.885,10.979-7.653c3.498,0.183,6.589,3.994,6.589,7.653v34.963    c0,3.029,2.843,5.425,5.908,5.425c2.691,0,5.807-1.78,5.807-5.474v-34.813C217.555,250.587,204.935,244.625,199.344,244.799z" fill="#FFFFFF"/><path d="M296.484,244.76c-3.408,0.016-5.611,2.81-5.615,5.65l0.013,47.713c-0.025,3.164,2.482,5.525,5.58,5.525    c3.536,0,5.796-2.763,5.796-5.771l0.024-47.39C302.282,247.687,299.45,244.751,296.484,244.76z" fill="#FFFFFF"/><path d="M276.677,244.775c-3.203-0.006-5.468,2.559-5.468,5.059v1.948c-5.056-4.306-11.606-6.976-18.678-6.983    c-15.56-0.029-29.339,13.082-29.339,29.479c0,15.032,13.128,29.391,29.339,29.391c6.557,0,13.611-2.522,18.622-6.798l0.016,1.396    c0,2.669,2.114,5.401,5.589,5.401c3.943,0,5.71-3.151,5.71-5.64v-47.891C282.508,247.891,280.041,244.777,276.677,244.775z     M252.688,292.767c-10.255,0-18.566-8.308-18.566-18.556c0-10.253,8.312-18.559,18.566-18.559    c10.256,0,18.569,8.306,18.569,18.559C271.257,284.459,262.944,292.767,252.688,292.767z" fill="#FFFFFF"/><path d="M335.555,292.271c-7.225-0.004-13.667-5.561-13.667-13.757l0.01-45.359    c-0.01-3.133-2.566-5.323-5.691-5.323c-3.632,0.01-5.726,2.685-5.726,5.323v45.405c-0.042,14.094,11.609,25.141,24.87,25.141    c3.939,0,5.838-3.197,5.838-5.904C341.188,295.214,339.152,292.272,335.555,292.271z" fill="#FFFFFF"/></g></g></svg>