<?xml version="1.0" encoding="UTF-8" standalone="no"?>
<!-- Created with Inkscape (http://www.inkscape.org/) -->

<svg
   xmlns:dc="http://purl.org/dc/elements/1.1/"
   xmlns:cc="http://creativecommons.org/ns#"
   xmlns:rdf="http://www.w3.org/1999/02/22-rdf-syntax-ns#"
   xmlns:svg="http://www.w3.org/2000/svg"
   xmlns="http://www.w3.org/2000/svg"
   xmlns:sodipodi="http://sodipodi.sourceforge.net/DTD/sodipodi-0.dtd"
   xmlns:inkscape="http://www.inkscape.org/namespaces/inkscape"
   width="3000"
   height="2933.21"
   viewBox="0 0 3000 2933.2101"
   id="svg40450"
   version="1.1"
   inkscape:version="0.91 r13725"
   sodipodi:docname="lider.svg">
  <title
     id="title55047">McDonald's</title>
  <defs
     id="defs40452" />
  <sodipodi:namedview
     id="base"
     pagecolor="#ffffff"
     bordercolor="#666666"
     borderopacity="1.0"
     inkscape:pageopacity="0.0"
     inkscape:pageshadow="2"
     inkscape:zoom="0.11215765"
     inkscape:cx="1234.1269"
     inkscape:cy="1897.9261"
     inkscape:document-units="px"
     inkscape:current-layer="layer1"
     showgrid="false"
     inkscape:showpageshadow="false"
     fit-margin-top="20"
     fit-margin-bottom="20"
     fit-margin-left="20"
     fit-margin-right="20"
     units="px"
     inkscape:window-width="1366"
     inkscape:window-height="715"
     inkscape:window-x="-8"
     inkscape:window-y="-8"
     inkscape:window-maximized="1" />
  <metadata
     id="metadata40455">
    <rdf:RDF>
      <cc:Work
         rdf:about="">
        <dc:format>image/svg+xml</dc:format>
        <dc:type
           rdf:resource="http://purl.org/dc/dcmitype/StillImage" />
        <dc:title>McDonald's</dc:title>
      </cc:Work>
    </rdf:RDF>
  </metadata>
  <g
     inkscape:label="Capa 1"
     inkscape:groupmode="layer"
     id="layer1"
     transform="translate(1113.1741,1476.0398)">
    <g
       id="g55015">
      <g
         transform="matrix(100.30839,0,0,-100.30839,-1093.1742,475.41351)"
         id="g47059">
        <path
           inkscape:connector-curvature="0"
           id="path47061"
           style="fill:#ef3e42;fill-opacity:1;fill-rule:nonzero;stroke:none"
           d="m 0,0 1.066,-9.588 27.378,0 L 29.509,0 0,0 Z" />
      </g>
      <g
         transform="matrix(100.30839,0,0,-100.30839,1352.5669,717.15149)"
         id="g47071">
        <path
           inkscape:connector-curvature="0"
           id="path47073"
           style="fill:#febd11;fill-opacity:1;fill-rule:nonzero;stroke:none"
           d="m 0,0 c 0,0 -1.385,19.868 -4.368,19.868 -3.515,0 -3.675,-18.696 -3.675,-18.696 l -3.276,-0.027 c 0,0 -0.16,18.696 -3.675,18.696 -2.983,0 -4.368,-19.868 -4.368,-19.868 l -3.209,0.014 c 0,0 2.156,21.633 7.763,21.66 3.689,0.018 5.113,-9.317 5.113,-9.317 0,0 2.145,9.335 4.915,9.335 6.658,0 7.989,-21.678 7.989,-21.678 L 0,0 Z" />
      </g>
      <g
         transform="matrix(100.30839,0,0,-100.30839,381.50141,560.87101)"
         id="g47075">
        <path
           inkscape:connector-curvature="0"
           id="path47077"
           style="fill:#ffd420;fill-opacity:1;fill-rule:nonzero;stroke:none"
           d="M 0,0 -1.638,-0.413 1.638,-0.386 0,0 Z" />
      </g>
      <g
         transform="matrix(100.30839,0,0,-100.30839,1503.5009,678.41239)"
         id="g47079">
        <path
           inkscape:connector-curvature="0"
           id="path47081"
           style="fill:#ffd420;fill-opacity:1;fill-rule:nonzero;stroke:none"
           d="m 0,0 -1.491,-0.399 3.196,0 L 0,0 Z" />
      </g>
      <g
         transform="matrix(100.30839,0,0,-100.30839,-761.8738,678.41239)"
         id="g47083">
        <path
           inkscape:connector-curvature="0"
           id="path47085"
           style="fill:#ffd420;fill-opacity:1;fill-rule:nonzero;stroke:none"
           d="M 0,0 -1.491,-0.399 1.718,-0.413 0,0 Z" />
      </g>
      <g
         transform="matrix(100.30839,0,0,-100.30839,899.74471,-1362.5524)"
         id="g47087">
        <path
           inkscape:connector-curvature="0"
           id="path47089"
           style="fill:#ffd420;fill-opacity:1;fill-rule:nonzero;stroke:none"
           d="m 0,0 c -4.368,0 -5.167,-19.175 -5.167,-19.175 l -0.014,10.772 c 0,0 2.145,9.335 4.915,9.335 L 0,0 Z" />
      </g>
      <g
         transform="matrix(100.30839,0,0,-100.30839,-152.79123,-1357.216)"
         id="g47091">
        <path
           inkscape:connector-curvature="0"
           id="path47093"
           style="fill:#ffd420;fill-opacity:1;fill-rule:nonzero;stroke:none"
           d="m 0,0 c 4.261,0 5.326,-19.122 5.326,-19.122 l -1.637,-0.413 c 0,0 -0.16,18.696 -3.676,18.696 L 0,0 Z" />
      </g>
      <g
         transform="matrix(100.30839,0,0,-100.30839,-761.8738,678.41239)"
         id="g47095">
        <path
           inkscape:connector-curvature="0"
           id="path47097"
           style="fill:#ffd420;fill-opacity:1;fill-rule:nonzero;stroke:none"
           d="m 0,0 c 0,0 1.758,20.294 6.072,20.294 l 0.199,0.967 C 0.664,21.234 -1.491,-0.399 -1.491,-0.399 L 0,0 Z" />
      </g>
      <g
         transform="matrix(100.30839,0,0,-100.30839,1503.5009,678.41239)"
         id="g47099">
        <path
           inkscape:connector-curvature="0"
           id="path47101"
           style="fill:#ffd420;fill-opacity:1;fill-rule:nonzero;stroke:none"
           d="m 0,0 c 0,0 -1.598,20.347 -6.019,20.347 l 0.147,-0.866 c 2.982,0 4.367,-19.867 4.367,-19.867 L 0,0 Z" />
      </g>
      <g
         transform="matrix(100.30839,0,0,-100.30839,-254.15286,1019.0196)"
         id="g47103" />
      <g
         transform="matrix(100.30839,0,0,-100.30839,-923.59099,1174.3772)"
         id="g47107" />
      <g
         transform="matrix(100.30839,0,0,-100.30839,1688.4395,1004.1338)"
         id="g47111" />
      <g
         transform="matrix(100.30839,0,0,-100.30839,1300.9783,1055.4114)"
         id="g47115" />
      <g
         transform="matrix(100.30839,0,0,-100.30839,965.14578,1021.9586)"
         id="g47121" />
      <g
         transform="matrix(100.30839,0,0,-100.30839,434.53446,1176.7344)"
         id="g47125" />
      <g
         transform="matrix(100.30839,0,0,-100.30839,316.22071,1048.6707)"
         id="g47129" />
      <g
         transform="matrix(100.30839,0,0,-100.30839,1412.3005,885.39875)"
         id="g47133" />
      <g
         transform="matrix(100.30839,0,0,-100.30839,-117.54286,952.54518)"
         id="g47137" />
      <g
         transform="matrix(100.30839,0,0,-100.30839,1681.8292,824.71217)"
         id="g47141" />
      <g
         transform="matrix(100.30839,0,0,-100.30839,1710.5575,882.96125)"
         id="g47145">
        <path
           d="m 0,0 -0.104,0.47 0,-0.47 -0.119,0 0,0.581 0.174,0 0.109,-0.446 0.108,0.446 0.175,0 0,-0.581 -0.12,0 0,0.47 L 0.119,0 0,0 Z m -0.28639977,0.58069998 0,-0.1 -0.17,0 0,-0.48100000067 -0.119,0 0,0.48100000067 -0.176,0 0,0.1 0.465,0 z M -18.2248,-0.6937 l 0.371,0 c 0.844,0 0.918,-0.57 0.918,-0.775 0,-0.306 -0.106,-0.812 -0.833,-0.812 l -0.456,0 0,1.587 z m -1.017,-2.223 1.528,0 c 1.197,0 1.754,0.56 1.754,1.441 0,0.724 -0.404,1.432 -1.547,1.432 l -1.735,0 0,-2.873 z m 16.2683997,2.89239994 0.741,0 -0.246,-0.838 -0.495,0 0,0.838 z M -13.9005,-1.6519999 c 0,-0.286 -0.056,-0.672 -0.476,-0.672 -0.42,0 -0.476,0.386 -0.476,0.672 0,0.286 0.056,0.667 0.476,0.667 0.42,0 0.476,-0.381 0.476,-0.667 m 0.907,0.001 c 0,0.695 -0.431,1.313 -1.386,1.313 -0.956,0 -1.387,-0.618 -1.387,-1.313 0,-0.696 0.431,-1.319 1.387,-1.319 0.955,0 1.386,0.623 1.386,1.319 m 0.2725,-1.2776998 0.882,0 0,1.266 c 0,0.384 0.241,0.463 0.398,0.463 0.268,0 0.385,-0.195 0.385,-0.473 l 0,-1.257 0.892,10e-4 0,1.645 c 0,0.44900002 -0.355,0.81300002 -0.884,0.81400002 -0.365,0 -0.657,-0.125 -0.828,-0.365 l 0,0.305 -0.845,0 0,-2.39900002 z m 5.2897999,1.5429996 c -0.019,0.287 -0.002,0.96999996 -1.148,0.96999996 -0.569,0 -1.193,-0.146 -1.193,-0.81999996 l 0.856,0 c 0.005,0.102 0.082,0.28299996 0.31,0.28299996 0.147,0 0.29,-0.096 0.297,-0.25699996 0.003,-0.08 -0.134,-0.155 -0.261,-0.153 -0.519,0.009 -1.32,-0.064 -1.32,-0.838 0,-0.504 0.361,-0.766 0.823,-0.766 0.296,0 0.523,0.089 0.725,0.274 l 0.045,-0.018 c -0.005,-0.064 -0.014,-0.131 0.009,-0.196 l 0.874,0 c -0.063,0.169 -0.017,0.356 -0.017,0.537 l 0,0.984 z m -0.875,-0.615 c -0.009,-0.145 -0.228,-0.345 -0.42,-0.344 -0.167,0 -0.254,0.097 -0.254,0.208 0,0.162 0.037,0.273 0.219,0.31 0.125,0.025 0.3,0.045 0.455,0.048 l 0,-0.222 z m 1.2660004,1.97670001 0.9149992,0 0,-2.90299981 -0.9149992,0 0,2.90299981 z m 2.9569999,-1.69519961 c 0,-0.286 -0.08,-0.595 -0.436,-0.595 -0.355,0 -0.435,0.309 -0.435,0.595 0,0.281 0.08,0.59 0.435,0.59 0.356,0 0.436,-0.309 0.436,-0.59 m 0.856,1.69500004 -0.881,0 0,-0.689 -0.01,0 c -0.138,0.204 -0.419,0.279 -0.692,0.279 -0.804,0 -1.056,-0.72900004 -1.056,-1.29300004 0,-0.701 0.31,-1.256 1.045,-1.254 0.448,0.002 0.587,0.171 0.702,0.324 l 0.009,0 0,-0.264 0.883,0 0,2.89700004 z M -0.2205,-1.2080001 c -0.018,0.75599995 -0.634,0.81699995 -1.12,0.82899995 -0.382,0.009 -1.069,-0.138 -1.069,-0.77299995 0,-0.431 0.265,-0.664 0.92,-0.79 0.4,-0.077 0.435,-0.16 0.441,-0.268 0.007,-0.145 -0.143,-0.236 -0.256,-0.236 -0.104,0 -0.186,0.029 -0.23,0.072 -0.065,0.063 -0.102,0.18 -0.107,0.267 l -0.864,0 c 0.013,-0.649 0.409,-0.886 1.168,-0.887 0.547,0 1.19,0.177 1.19,0.876 0,0.364 -0.246,0.564 -0.592,0.655 -0.296,0.078 -0.576,0.123 -0.719,0.191 -0.048,0.024 -0.126,0.091 -0.126,0.164 0,0.16499995 0.144,0.19099995 0.26,0.19399995 0.07,0.002 0.139,0.005 0.191,-0.044 0.057,-0.0429999 0.096,-0.16799995 0.1,-0.24999995 l 0.813,0 z m -26.04,-1.6972001 0.924,0 c 0,0 0.214,1.364 0.222,1.479 l 0.509,-1.479 0.793,0 0.519,1.479 0.163,-1.479 0.995,0 -0.5,2.88800005 -1.126,0 c 0,0 -0.4,-1.28300005 -0.42,-1.40900005 l -0.028,0 -0.42,1.40900005 -1.139,0 -0.492,-2.88800005 z m 6.6738,1.5487997 c -0.055,0.661 -0.592,0.971 -1.22,0.971 -0.721,0 -1.296,-0.504 -1.299,-1.262 -0.003,-0.947 0.578,-1.319 1.299,-1.319 0.647,0 1.161,0.201 1.248,1.041 l -0.874,0 c -0.018,-0.19 -0.092,-0.401 -0.356,-0.401 -0.404,0 -0.402,0.388 -0.402,0.679 0,0.291 0.01,0.648 0.361,0.648 0.097,0 0.221,-0.039 0.277,-0.09 0.06,-0.051 0.088,-0.17 0.097,-0.267 l 0.869,0 z"
           style="fill:#ffffff;fill-opacity:1;fill-rule:nonzero;stroke:none"
           id="path47147"
           inkscape:connector-curvature="0" />
      </g>
    </g>
  </g>
</svg>
